<svg xmlns="http://www.w3.org/2000/svg" width="600" height="400" viewBox="0 0 600 400">
  <defs>
    <rect id="day" width="42" height="42" rx="8"/>
  </defs>
  <rect width="600" height="400" fill="#e3ecf7"/>
  <rect x="110" y="70" width="380" height="260" rx="14" fill="#ffffff"/>
  <path d="M124 70 h352 a14 14 0 0 1 14 14 v42 h-380 v-42 a14 14 0 0 1 14 -14 Z" fill="#3d5a99"/>
  <g fill="#e4572e">
    <use href="#day" x="130" y="150"/>
    <use href="#day" x="180" y="150"/>
    <use href="#day" x="230" y="150"/>
    <use href="#day" x="280" y="150"/>
    <use href="#day" x="130" y="210"/>
    <use href="#day" x="180" y="210"/>
    <use href="#day" x="230" y="210"/>
    <use href="#day" x="280" y="210"/>
    <use href="#day" x="130" y="270"/>
    <use href="#day" x="180" y="270"/>
    <use href="#day" x="230" y="270"/>
    <use href="#day" x="280" y="270"/>
  </g>
  <g fill="#dde3ec">
    <use href="#day" x="330" y="150"/>
    <use href="#day" x="380" y="150"/>
    <use href="#day" x="430" y="150"/>
    <use href="#day" x="330" y="210"/>
    <use href="#day" x="380" y="210"/>
    <use href="#day" x="430" y="210"/>
    <use href="#day" x="330" y="270"/>
    <use href="#day" x="380" y="270"/>
    <use href="#day" x="430" y="270"/>
  </g>
</svg>
