<svg xmlns="http://www.w3.org/2000/svg" width="600" height="400" viewBox="0 0 600 400">
  <rect width="600" height="400" fill="#dfe7f5"/>
  <rect x="90" y="70" width="420" height="260" rx="16" fill="#ffffff"/>
  <path d="M106 70 h388 a16 16 0 0 1 16 16 v28 h-420 v-28 a16 16 0 0 1 16 -16 Z" fill="#1f2a44"/>
  <circle cx="116" cy="92" r="6" fill="#f08a63"/>
  <circle cx="136" cy="92" r="6" fill="#f2b84b"/>
  <circle cx="156" cy="92" r="6" fill="#9db4e0"/>
  <rect x="140" y="220" width="40" height="80" rx="6" fill="#9db4e0"/>
  <rect x="200" y="180" width="40" height="120" rx="6" fill="#9db4e0"/>
  <rect x="260" y="200" width="40" height="100" rx="6" fill="#9db4e0"/>
  <rect x="320" y="150" width="40" height="150" rx="6" fill="#3d5a99"/>
  <rect x="380" y="130" width="40" height="170" rx="6" fill="#e4572e"/>
  <rect x="440" y="160" width="40" height="140" rx="6" fill="#9db4e0"/>
</svg>
